<mxfile host="app.diagrams.net" modified="2024-03-14T06:56:12.811Z" agent="Mozilla/5.0 (Macintosh; Intel Mac OS X 10_15_7) AppleWebKit/537.36 (KHTML, like Gecko) Chrome/122.0.0.0 Safari/537.36" etag="lR5E27eUnCtkHY2VhiLL" version="24.0.6" type="github">
  <diagram name="第 1 页" id="yf8_H9KC9tbtcOi-HEtS">
    <mxGraphModel dx="1194" dy="696" grid="0" gridSize="10" guides="1" tooltips="1" connect="1" arrows="1" fold="1" page="1" pageScale="1" pageWidth="1169" pageHeight="827" math="0" shadow="0">
      <root>
        <mxCell id="0" />
        <mxCell id="1" parent="0" />
      </root>
    </mxGraphModel>
  </diagram>
</mxfile>
